<svg xmlns="http://www.w3.org/2000/svg" xmlns:xlink="http://www.w3.org/1999/xlink" version="1.1" x="0px" y="0px" viewBox="0 0 32 40" enable-background="new 0 0 32 32" xml:space="preserve">
  <path d="M24.512,25.174H9.115c-1.37,0-2.48,1.11-2.48,2.479v1.344c0,1.369,1.11,2.479,2.48,2.479h15.397c1.37,0,2.48-1.11,2.48-2.479v-1.344C26.992,26.284,25.881,25.174,24.512,25.174z" fill="#0038d1" />
  <path d="M14.023,3.752V1.913c-1.005,0.185-1.684,0.375-1.684,0.375l1.063,1.639C13.598,3.864,13.799,3.803,14.023,3.752z" fill="#0038d1" />
  <path d="M24.435,13.006v9.683h2.084c0,0,0-5.387,0-11.896s-4.146-8.603-7.536-9.106c-0.356-0.053-0.724-0.083-1.094-0.098c0.762,0.744,1.193,1.552,1.424,2.125C24.435,4.947,24.435,10.573,24.435,13.006z" fill="#0038d1" />
  <path d="M9.352,16.251c4.284-1.695,4.62-1.695,4.62-1.695l-4.263,9.998h14.105c0,0,0-8.758,0-11.548c0-2.529,0-7.798-4.966-8.76C18.53,3.28,17.53,1.226,14.644,0.523v3.74c-3.677,0.603-3.192,2.75-6.322,5.453l-1.96,1.086c-1.269,0.703-1.727,2.302-1.024,3.569l0.445,0.855C6.486,16.495,7.776,16.875,9.352,16.251z M13.122,7.212c0.512-0.261,1.106-0.182,1.529,0.15C14.67,7.9,14.382,8.427,13.87,8.687s-1.106,0.182-1.53-0.151C12.322,7.998,12.61,7.472,13.122,7.212z" fill="#0038d1" />
</svg>
